# Blender v2.79 (sub 0) OBJ File: 'map.blend'
# www.blender.org
mtllib map.mtl
o Curve.001_CUrect825
v 4.608194 0.000000 13.847483
v 10.698956 0.000000 13.847483
v 10.698956 0.000000 -16.146797
v -0.283656 0.000000 -16.146797
v -0.283656 0.000000 -15.321416
v 10.294765 0.000000 -15.321416
v 10.294765 0.000000 -11.516171
v 4.876779 0.000000 -11.516171
v 4.876779 0.000000 -11.672884
v 4.608194 0.000000 -11.672884
v 4.608194 0.000000 -11.516171
v 4.608194 0.000000 -11.158019
v 4.608194 0.000000 -9.098786
v 6.309651 0.000000 -9.098786
v 6.309651 0.000000 -11.158019
v 10.294768 0.000000 -11.158019
v 10.294768 0.000000 -1.242149
v 6.309651 0.000000 -1.242149
v 6.309651 0.000000 -2.204663
v 4.608194 0.000000 -2.204663
v 4.608194 0.000000 0.302225
v 6.309651 0.000000 0.302225
v 6.309651 0.000000 -0.548261
v 10.294768 0.000000 -0.548261
v 10.294768 0.000000 8.270782
v 6.309651 0.000000 8.270782
v 6.309651 0.000000 7.241159
v 4.608194 0.000000 7.241159
v 4.608194 0.000000 9.815264
v 6.309651 0.000000 9.815264
v 6.309651 0.000000 8.584112
v 10.294768 0.000000 8.584112
v 10.294768 0.000000 13.499075
v 6.309651 0.000000 13.499075
v 6.309651 0.000000 12.031227
v 4.608194 0.000000 12.031227
v 4.608194 0.000000 -6.949920
v 4.608194 0.000000 -4.308706
v 6.309651 0.000000 -4.308706
v 6.309651 0.000000 -6.949920
v 4.608194 0.000000 2.540594
v 4.608194 0.000000 5.070001
v 6.309651 0.000000 5.070001
v 6.309651 0.000000 2.540594
v -5.063496 0.000000 -16.146797
v -11.301494 0.000000 -16.146797
v -11.301494 0.000000 13.847483
v -5.123647 0.000000 13.847483
v -5.091985 0.000000 13.284678
v -10.794887 0.000000 13.284678
v -10.794887 0.000000 9.524226
v -6.809772 0.000000 9.524226
v -5.421714 0.000000 9.524226
v -5.421714 0.000000 9.748054
v -5.063496 0.000000 9.748054
v -5.063496 0.000000 9.524226
v -5.063496 0.000000 7.151646
v -6.809772 0.000000 7.151646
v -6.809772 0.000000 9.278000
v -10.794887 0.000000 9.278000
v -10.794887 0.000000 -0.727391
v -6.809772 0.000000 -0.727391
v -6.809772 0.000000 0.212723
v -5.063496 0.000000 0.212723
v -5.063496 0.000000 -2.271765
v -6.809772 0.000000 -2.271765
v -6.809772 0.000000 -1.354063
v -10.794887 0.000000 -1.354063
v -10.794887 0.000000 -5.427843
v -6.809772 0.000000 -5.427843
v -6.809772 0.000000 -4.532540
v -5.063496 0.000000 -4.532540
v -5.063496 0.000000 -7.263369
v -10.794887 0.000000 -7.263369
v -10.794887 0.000000 -12.855774
v -8.578455 0.000000 -12.855774
v -8.578455 0.000000 -9.076375
v -5.063496 0.000000 -9.076375
v -7.123278 0.000000 2.428687
v -7.123278 0.000000 4.957986
v -5.063496 0.000000 4.957986
v -5.063496 0.000000 2.428687
v 4.608194 3.126425 13.847483
v 10.698956 3.126425 13.847483
v 10.698956 3.126425 -16.146797
v -0.283656 3.126425 -16.146797
v -0.283656 3.126425 -15.321416
v 10.294765 3.126425 -15.321416
v 10.294765 3.126425 -11.516171
v 4.876779 3.126425 -11.516171
v 4.876779 3.126425 -11.672884
v 4.608194 3.126425 -11.672884
v 4.608194 3.126425 -11.516171
v 4.608194 3.126425 -11.158019
v 4.608194 3.126425 -9.098786
v 6.309651 3.126425 -9.098786
v 6.309651 3.126425 -11.158019
v 10.294768 3.126425 -11.158019
v 10.294768 3.126425 -1.242149
v 6.309651 3.126425 -1.242149
v 6.309651 3.126425 -2.204663
v 4.608194 3.126425 -2.204663
v 4.608194 3.126425 0.302225
v 6.309651 3.126425 0.302225
v 6.309651 3.126425 -0.548261
v 10.294768 3.126425 -0.548261
v 10.294768 3.126425 8.270782
v 6.309651 3.126425 8.270782
v 6.309651 3.126425 7.241159
v 4.608194 3.126425 7.241159
v 4.608194 3.126425 9.815264
v 6.309651 3.126425 9.815264
v 6.309651 3.126425 8.584112
v 10.294768 3.126425 8.584112
v 10.294768 3.126425 13.499075
v 6.309651 3.126425 13.499075
v 6.309651 3.126425 12.031227
v 4.608194 3.126425 12.031227
v 4.608194 3.126425 -6.949920
v 4.608194 3.126425 -4.308706
v 6.309651 3.126425 -4.308706
v 6.309651 3.126425 -6.949920
v 4.608194 3.126425 2.540594
v 4.608194 3.126425 5.070001
v 6.309651 3.126425 5.070001
v 6.309651 3.126425 2.540594
v -5.063496 3.126425 -16.146797
v -11.301494 3.126425 -16.146797
v -11.301494 3.126425 13.847483
v -5.123647 3.126425 13.847483
v -5.091985 3.126425 13.284678
v -10.794887 3.126425 13.284678
v -10.794887 3.126425 9.524226
v -6.809772 3.126425 9.524226
v -5.421714 3.126425 9.524226
v -5.421714 3.126425 9.748054
v -5.063496 3.126425 9.748054
v -5.063496 3.126425 9.524226
v -5.063496 3.126425 7.151646
v -6.809772 3.126425 7.151646
v -6.809772 3.126425 9.278000
v -10.794887 3.126425 9.278000
v -10.794887 3.126425 -0.727391
v -6.809772 3.126425 -0.727391
v -6.809772 3.126425 0.212723
v -5.063496 3.126425 0.212723
v -5.063496 3.126425 -2.271765
v -6.809772 3.126425 -2.271765
v -6.809772 3.126425 -1.354063
v -10.794887 3.126425 -1.354063
v -10.794887 3.126425 -5.427843
v -6.809772 3.126425 -5.427843
v -6.809772 3.126425 -4.532540
v -5.063496 3.126425 -4.532540
v -5.063496 3.126425 -7.263369
v -10.794887 3.126425 -7.263369
v -10.794887 3.126425 -12.855774
v -8.578455 3.126425 -12.855774
v -8.578455 3.126425 -9.076375
v -5.063496 3.126425 -9.076375
v -7.123278 3.126425 2.428687
v -7.123278 3.126425 4.957986
v -5.063496 3.126425 4.957986
v -5.063496 3.126425 2.428687
v -11.301494 -0.500000 -16.146797
v -11.301494 -0.500000 13.847483
v 10.698956 -0.500000 13.847483
v 10.698956 -0.500000 -16.146797
vn 0.0000 -1.0000 0.0000
vn 0.0000 0.0000 1.0000
vn 0.0000 1.0000 0.0000
vn -1.0000 0.0000 0.0000
vn 1.0000 0.0000 0.0000
vn 0.0000 0.0000 -1.0000
vn 0.9984 0.0000 0.0562
usemtl (null)
s off
f 47//1 46//1 75//1
f 75//1 46//1 45//1
f 75//1 45//1 76//1
f 76//1 45//1 78//1
f 47//1 75//1 74//1
f 77//1 76//1 78//1
f 47//1 74//1 69//1
f 69//1 74//1 73//1
f 69//1 73//1 70//1
f 70//1 73//1 72//1
f 47//1 69//1 68//1
f 71//1 70//1 72//1
f 67//1 66//1 65//1
f 67//1 65//1 64//1
f 47//1 68//1 61//1
f 61//1 68//1 67//1
f 61//1 67//1 62//1
f 62//1 67//1 64//1
f 47//1 61//1 60//1
f 63//1 62//1 64//1
f 80//1 79//1 82//1
f 80//1 82//1 81//1
f 59//1 58//1 57//1
f 59//1 57//1 56//1
f 47//1 60//1 51//1
f 51//1 60//1 59//1
f 51//1 59//1 56//1
f 47//1 51//1 50//1
f 52//2 51//2 56//2
f 53//2 52//2 56//2
f 54//1 53//1 56//1
f 54//1 56//1 55//1
f 47//1 50//1 49//1
f 47//1 49//1 48//1
f 5//1 4//1 3//1
f 5//1 3//1 6//1
f 6//1 3//1 2//1
f 7//1 6//1 2//1
f 11//1 10//1 9//1
f 11//1 9//1 8//1
f 12//1 11//1 8//1
f 12//1 8//1 7//1
f 12//1 7//1 15//1
f 15//1 7//1 16//1
f 16//1 7//1 2//1
f 13//1 12//1 15//1
f 13//1 15//1 14//1
f 17//1 16//1 2//1
f 38//1 37//1 40//1
f 38//1 40//1 39//1
f 21//1 20//1 19//1
f 21//1 19//1 18//1
f 21//1 18//1 23//1
f 23//1 18//1 17//1
f 23//1 17//1 24//1
f 24//1 17//1 2//1
f 21//1 23//1 22//1
f 25//1 24//1 2//1
f 42//1 41//1 44//1
f 42//1 44//1 43//1
f 29//1 28//1 27//1
f 29//1 27//1 26//1
f 29//1 26//1 31//1
f 31//1 26//1 25//1
f 31//1 25//1 32//1
f 32//1 25//1 2//1
f 29//1 31//1 30//1
f 33//1 32//1 2//1
f 1//1 36//1 35//1
f 1//1 35//1 34//1
f 1//1 34//1 33//1
f 1//1 33//1 2//1
f 129//3 157//3 128//3
f 157//3 127//3 128//3
f 157//3 158//3 127//3
f 158//3 160//3 127//3
f 129//3 156//3 157//3
f 159//3 160//3 158//3
f 129//3 151//3 156//3
f 151//3 155//3 156//3
f 151//3 152//3 155//3
f 152//3 154//3 155//3
f 129//3 150//3 151//3
f 153//3 154//3 152//3
f 149//3 147//3 148//3
f 149//3 146//3 147//3
f 129//3 143//3 150//3
f 143//3 149//3 150//3
f 143//3 144//3 149//3
f 144//3 146//3 149//3
f 129//3 142//3 143//3
f 145//3 146//3 144//3
f 162//3 164//3 161//3
f 162//3 163//3 164//3
f 141//3 139//3 140//3
f 141//3 138//3 139//3
f 129//3 133//3 142//3
f 133//3 141//3 142//3
f 133//3 138//3 141//3
f 129//3 132//3 133//3
f 134//2 138//2 133//2
f 135//2 138//2 134//2
f 136//3 138//3 135//3
f 136//3 137//3 138//3
f 129//3 131//3 132//3
f 129//3 130//3 131//3
f 87//3 85//3 86//3
f 87//3 88//3 85//3
f 88//3 84//3 85//3
f 89//3 84//3 88//3
f 93//3 91//3 92//3
f 93//3 90//3 91//3
f 94//3 90//3 93//3
f 94//3 89//3 90//3
f 94//3 97//3 89//3
f 97//3 98//3 89//3
f 98//3 84//3 89//3
f 95//3 97//3 94//3
f 95//3 96//3 97//3
f 99//3 84//3 98//3
f 120//3 122//3 119//3
f 120//3 121//3 122//3
f 103//3 101//3 102//3
f 103//3 100//3 101//3
f 103//3 105//3 100//3
f 105//3 99//3 100//3
f 105//3 106//3 99//3
f 106//3 84//3 99//3
f 103//3 104//3 105//3
f 107//3 84//3 106//3
f 124//3 126//3 123//3
f 124//3 125//3 126//3
f 111//3 109//3 110//3
f 111//3 108//3 109//3
f 111//3 113//3 108//3
f 113//3 107//3 108//3
f 113//3 114//3 107//3
f 114//3 84//3 107//3
f 111//3 112//3 113//3
f 115//3 84//3 114//3
f 83//3 117//3 118//3
f 83//3 116//3 117//3
f 83//3 115//3 116//3
f 83//3 84//3 115//3
f 66//4 67//4 149//4 148//4
f 80//2 81//2 163//2 162//2
f 53//4 54//4 136//4 135//4
f 58//4 59//4 141//4 140//4
f 47//2 48//2 130//2 129//2
f 21//2 22//2 104//2 103//2
f 1//2 2//2 84//2 83//2
f 39//5 40//5 122//5 121//5
f 76//4 77//4 159//4 158//4
f 56//5 57//5 139//5 138//5
f 11//4 12//4 94//4 93//4
f 61//2 62//2 144//2 143//2
f 46//4 47//4 129//4 128//4
f 69//2 70//2 152//2 151//2
f 43//5 44//5 126//5 125//5
f 68//5 69//5 151//5 150//5
f 12//4 13//4 95//4 94//4
f 38//2 39//2 121//2 120//2
f 23//2 24//2 106//2 105//2
f 77//2 78//2 160//2 159//2
f 24//4 25//4 107//4 106//4
f 41//4 42//4 124//4 123//4
f 31//2 32//2 114//2 113//2
f 55//5 56//5 138//5 137//5
f 3//6 4//6 86//6 85//6
f 81//5 82//5 164//5 163//5
f 18//5 19//5 101//5 100//5
f 70//4 71//4 153//4 152//4
f 36//4 1//4 83//4 118//4
f 75//2 76//2 158//2 157//2
f 5//2 6//2 88//2 87//2
f 54//2 55//2 137//2 136//2
f 49//6 50//6 132//6 131//6
f 64//5 65//5 147//5 146//5
f 72//5 73//5 155//5 154//5
f 33//6 34//6 116//6 115//6
f 42//2 43//2 125//2 124//2
f 4//4 5//4 87//4 86//4
f 78//5 45//5 127//5 160//5
f 10//4 11//4 93//4 92//4
f 35//6 36//6 118//6 117//6
f 26//5 27//5 109//5 108//5
f 73//6 74//6 156//6 155//6
f 22//5 23//5 105//5 104//5
f 82//6 79//6 161//6 164//6
f 32//4 33//4 115//4 114//4
f 7//6 8//6 90//6 89//6
f 40//6 37//6 119//6 122//6
f 25//6 26//6 108//6 107//6
f 60//5 61//5 143//5 142//5
f 13//2 14//2 96//2 95//2
f 2//5 3//5 85//5 84//5
f 63//2 64//2 146//2 145//2
f 34//5 35//5 117//5 116//5
f 16//4 17//4 99//4 98//4
f 74//5 75//5 157//5 156//5
f 57//6 58//6 140//6 139//6
f 67//6 68//6 150//6 149//6
f 44//6 41//6 123//6 126//6
f 51//2 52//2 134//2 133//2
f 62//4 63//4 145//4 144//4
f 19//6 20//6 102//6 101//6
f 45//6 46//6 128//6 127//6
f 15//2 16//2 98//2 97//2
f 17//6 18//6 100//6 99//6
f 9//6 10//6 92//6 91//6
f 52//2 53//2 135//2 134//2
f 8//5 9//5 91//5 90//5
f 65//6 66//6 148//6 147//6
f 59//6 60//6 142//6 141//6
f 27//6 28//6 110//6 109//6
f 71//2 72//2 154//2 153//2
f 30//5 31//5 113//5 112//5
f 79//4 80//4 162//4 161//4
f 6//4 7//4 89//4 88//4
f 48//7 49//7 131//7 130//7
f 37//4 38//4 120//4 119//4
f 20//4 21//4 103//4 102//4
f 28//4 29//4 111//4 110//4
f 50//5 51//5 133//5 132//5
f 29//2 30//2 112//2 111//2
f 14//5 15//5 97//5 96//5
f 2//2 47//2 166//2 167//2
f 168//1 167//1 166//1 165//1
f 3//5 2//5 167//5 168//5
f 47//4 46//4 165//4 166//4
f 46//6 3//6 168//6 165//6
f 45//2 3//2 46//2
f 4//3 45//3 5//3
f 4//2 3//2 45//2
f 13//3 73//3 37//3
f 55//3 49//3 36//3
f 10//3 9//3 5//3
f 9//3 7//3 6//3
f 76//3 75//3 77//3
f 5//3 45//3 78//3
f 24//3 43//3 25//3
f 8//3 7//3 9//3
f 78//3 12//3 5//3
f 78//3 13//3 12//3
f 14//3 16//3 15//3
f 17//3 16//3 40//3
f 14//3 13//3 40//3
f 65//3 20//3 38//3
f 73//3 77//3 74//3
f 78//3 77//3 73//3
f 77//3 75//3 74//3
f 50//3 49//3 52//3
f 72//3 37//3 73//3
f 69//3 66//3 71//3
f 72//3 38//3 37//3
f 39//3 17//3 40//3
f 70//3 69//3 71//3
f 78//3 73//3 13//3
f 72//3 71//3 66//3
f 44//3 24//3 22//3
f 38//3 72//3 65//3
f 82//3 63//3 79//3
f 65//3 72//3 66//3
f 19//3 39//3 20//3
f 19//3 17//3 39//3
f 68//3 67//3 66//3
f 64//3 20//3 65//3
f 68//3 66//3 69//3
f 64//3 21//3 20//3
f 18//3 17//3 19//3
f 62//3 61//3 63//3
f 61//3 79//3 63//3
f 22//3 24//3 23//3
f 5//3 9//3 6//3
f 21//3 41//3 22//3
f 64//3 63//3 82//3
f 21//3 64//3 82//3
f 42//3 28//3 43//3
f 35//3 32//3 30//3
f 44//3 22//3 41//3
f 40//3 16//3 14//3
f 60//3 80//3 61//3
f 81//3 41//3 82//3
f 57//3 28//3 42//3
f 81//3 42//3 41//3
f 44//3 43//3 24//3
f 81//3 80//3 58//3
f 82//3 41//3 21//3
f 42//3 81//3 57//3
f 38//3 20//3 39//3
f 57//3 81//3 58//3
f 27//3 43//3 28//3
f 27//3 25//3 43//3
f 60//3 59//3 58//3
f 56//3 28//3 57//3
f 40//3 13//3 37//3
f 56//3 29//3 28//3
f 26//3 25//3 27//3
f 30//3 32//3 31//3
f 33//3 32//3 35//3
f 50//3 52//3 51//3
f 53//3 52//3 54//3
f 52//3 49//3 54//3
f 55//3 29//3 56//3
f 55//3 54//3 49//3
f 29//3 55//3 36//3
f 30//3 29//3 36//3
f 58//3 80//3 60//3
f 36//3 35//3 30//3
f 5//3 11//3 10//3
f 61//3 80//3 79//3
f 49//3 1//3 36//3
f 34//3 33//3 35//3
f 48//3 1//3 49//3
f 48//2 47//2 2//2
f 1//2 48//2 2//2
f 5//3 12//3 11//3
